<?xml version="1.0" encoding="utf-8"?>
<!-- Generator: Adobe Illustrator 18.0.0, SVG Export Plug-In . SVG Version: 6.00 Build 0)  -->
<!DOCTYPE svg PUBLIC "-//W3C//DTD SVG 1.1//EN" "http://www.w3.org/Graphics/SVG/1.1/DTD/svg11.dtd">
<svg version="1.1" id="Layer_1" xmlns="http://www.w3.org/2000/svg" xmlns:xlink="http://www.w3.org/1999/xlink" x="0px" y="0px"
	 viewBox="0 0 1024 960.6" enable-background="new 0 0 1024 960.6" xml:space="preserve">
<g id="Captions">
</g>
<path fill="#49A5FF" d="M865.3,384c0-195.1-158.2-353.3-353.3-353.3S158.7,188.9,158.7,384c0,151.1,94.9,280.1,228.4,330.6
	l125.1,206.8l125.3-207C770.7,663.7,865.3,534.9,865.3,384z"/>
<circle fill="#FFFFFF" cx="408.3" cy="298.8" r="51.5"/>
<circle fill="#FFFFFF" cx="615.7" cy="298.8" r="51.5"/>
<path fill="#FFFFFF" d="M644.1,462.3H379.9c-19.2,0-34.6,15.4-34.6,34.6s15.4,34.6,34.6,34.6h263.4c19.2,0,34.6-15.4,34.6-34.6
	C677.9,477.7,663.3,462.3,644.1,462.3z"/>
</svg>
