<?xml version="1.0" encoding="utf-8"?>
<!-- Generator: Adobe Illustrator 18.0.0, SVG Export Plug-In . SVG Version: 6.00 Build 0)  -->
<!DOCTYPE svg PUBLIC "-//W3C//DTD SVG 1.1//EN" "http://www.w3.org/Graphics/SVG/1.1/DTD/svg11.dtd">
<svg version="1.1" id="Layer_1" xmlns="http://www.w3.org/2000/svg" xmlns:xlink="http://www.w3.org/1999/xlink" x="0px" y="0px"
	 viewBox="0 0 1024 960.7" enable-background="new 0 0 1024 960.7" xml:space="preserve">
<g id="Captions">
</g>
<path fill="#E30076" d="M865.3,384c0-195.1-158.2-353.3-353.3-353.3S158.7,188.9,158.7,384c0,151.1,94.9,280.1,228.4,330.6
	l125.1,206.8l125.3-207C770.7,663.7,865.3,534.9,865.3,384z"/>
<circle fill="#FFFFFF" cx="408.3" cy="298.8" r="51.5"/>
<circle fill="#FFFFFF" cx="615.7" cy="298.8" r="51.5"/>
<path fill="#FFFFFF" d="M512,408.6c-72.2,0-138.2,33.8-171.3,89.1c-10,16.1-4.6,37.6,11.5,47.6c16.1,10,37.6,4.6,47.6-11.5
	c20.7-33.8,65.3-56.1,112.9-56.1s91.4,22.3,112.9,56.1c6.1,10.8,17.7,16.9,29.2,16.9c6.1,0,12.3-1.5,17.7-5.4
	c16.1-10,21.5-31.5,11.5-47.6C650.2,443.1,584.2,408.6,512,408.6z"/>
</svg>
